<svg width="420" height="108" viewBox="0 0 420 108" fill="none" xmlns="http://www.w3.org/2000/svg">
  <title>SoloMap wordmark</title>
  <defs>
    <linearGradient id="wordmark-s" x1="20" y1="70" x2="65" y2="22" gradientUnits="userSpaceOnUse">
      <stop offset="0" stop-color="#7A4DFF"/>
      <stop offset="0.5" stop-color="#45DDE9"/>
      <stop offset="1" stop-color="#8E5BFF"/>
    </linearGradient>
    <linearGradient id="wordmark-line" x1="27" y1="66" x2="60" y2="27" gradientUnits="userSpaceOnUse">
      <stop offset="0" stop-color="#A06CFF"/>
      <stop offset="0.55" stop-color="#48F2E8"/>
      <stop offset="1" stop-color="#63F1F2"/>
    </linearGradient>
    <radialGradient id="wordmark-node" cx="0" cy="0" r="1" gradientUnits="userSpaceOnUse" gradientTransform="translate(67 27) rotate(130) scale(11)">
      <stop offset="0" stop-color="#78FFF2"/>
      <stop offset="0.55" stop-color="#55DFF4"/>
      <stop offset="1" stop-color="#8B55FF"/>
    </radialGradient>
  </defs>

  <g aria-hidden="true">
    <path
      d="M61 28C50 20 31 22 24 31C18 40 22 49 36 54L49 58C63 64 67 75 58 84C47 95 25 93 16 78"
      stroke="url(#wordmark-s)"
      stroke-width="13"
      stroke-linecap="round"
      stroke-linejoin="round"/>
    <path
      d="M57 29C45 27 32 32 29 41C26 50 36 56 48 60C58 64 62 74 54 82C46 90 28 89 20 78"
      stroke="#0F111A"
      stroke-width="6.2"
      stroke-linecap="round"
      stroke-linejoin="round"/>
    <path
      d="M57 29C45 27 32 32 29 41C26 50 36 56 48 60C58 64 62 74 54 82C46 90 28 89 20 78"
      stroke="url(#wordmark-line)"
      stroke-width="2.4"
      stroke-linecap="round"
      stroke-linejoin="round"/>
    <circle cx="67" cy="27" r="6.4" fill="url(#wordmark-node)"/>
    <circle cx="67" cy="27" r="2.8" fill="#0F111A"/>
    <circle cx="16" cy="78" r="6.4" fill="url(#wordmark-node)"/>
    <circle cx="16" cy="78" r="2.8" fill="#0F111A"/>
  </g>

  <text
    x="88"
    y="66"
    font-family="Inter, ui-sans-serif, system-ui, -apple-system, BlinkMacSystemFont, 'Segoe UI', sans-serif"
    font-size="48"
    font-weight="760"
    letter-spacing="0"
    fill="#F8F7F3">SoloMap</text>
</svg>
