<svg width="1600" height="560" viewBox="0 0 1600 560" fill="none" xmlns="http://www.w3.org/2000/svg">
  <title>SoloMap logo with wordmark</title>
  <defs>
    <linearGradient id="wordmark-body" x1="110" y1="430" x2="405" y2="80" gradientUnits="userSpaceOnUse">
      <stop offset="0" stop-color="#6C3BFF"/>
      <stop offset="0.42" stop-color="#4ADAF0"/>
      <stop offset="0.72" stop-color="#6638F2"/>
      <stop offset="1" stop-color="#9B5CFF"/>
    </linearGradient>
    <linearGradient id="wordmark-route" x1="140" y1="410" x2="390" y2="115" gradientUnits="userSpaceOnUse">
      <stop offset="0" stop-color="#9B6CFF"/>
      <stop offset="0.42" stop-color="#48F2E8"/>
      <stop offset="1" stop-color="#65F6F2"/>
    </linearGradient>
    <radialGradient id="wordmark-node" cx="0" cy="0" r="1" gradientUnits="userSpaceOnUse" gradientTransform="translate(405 125) rotate(130) scale(72)">
      <stop offset="0" stop-color="#74FFF1"/>
      <stop offset="0.52" stop-color="#52DFF4"/>
      <stop offset="1" stop-color="#8B55FF"/>
    </radialGradient>
  </defs>
  <rect width="1600" height="560" fill="#050507"/>

  <g transform="translate(20 20)">
    <path
      d="M405 125C358 81 258 88 216 142C180 189 202 244 271 270L334 294C398 318 415 376 375 427C328 486 222 482 174 410"
      stroke="url(#wordmark-body)"
      stroke-width="84"
      stroke-linecap="round"
      stroke-linejoin="round"/>
    <path
      d="M378 118C315 106 243 130 228 188C214 243 260 276 316 299C366 320 384 367 354 411C323 457 235 460 186 404"
      stroke="#050507"
      stroke-width="40"
      stroke-linecap="round"
      stroke-linejoin="round"/>
    <path
      d="M378 118C315 106 243 130 228 188C214 243 260 276 316 299C366 320 384 367 354 411C323 457 235 460 186 404"
      stroke="url(#wordmark-route)"
      stroke-width="15"
      stroke-linecap="round"
      stroke-linejoin="round"/>
    <circle cx="405" cy="125" r="46" fill="url(#wordmark-node)"/>
    <circle cx="405" cy="125" r="22" fill="#050507"/>
    <circle cx="181" cy="407" r="46" fill="url(#wordmark-node)"/>
    <circle cx="181" cy="407" r="22" fill="#050507"/>
  </g>

  <text x="545" y="342"
    font-family="Inter, ui-sans-serif, system-ui, -apple-system, BlinkMacSystemFont, 'Segoe UI', sans-serif"
    font-size="172"
    font-weight="760"
    letter-spacing="-2"
    fill="#F8F7F3">SoloMap</text>
</svg>
